<?xml version="1.0" encoding="UTF-8"?>
<svg id="Layer_2" data-name="Layer 2" xmlns="http://www.w3.org/2000/svg" viewBox="0 0 553.94 172.62">
  <defs>
    <style>
      .cls-1 {
        fill: #fff;
      }

      .cls-2 {
        fill: #767a7b;
      }
    </style>
  </defs>
  <g id="Layer_1-2" data-name="Layer 1">
    <g>
      <path class="cls-1" d="M111.42,50.67h-14.14l-17.09,103.78h9.94s13.52-86.85,13.83-94.77h.47c.93,9.32,14.45,94.77,14.45,94.77h10.41l-17.87-103.78Z"/>
      <path class="cls-1" d="M535.25,50.67h-14.14l-17.09,103.78h9.94s13.52-86.85,13.83-94.77h.47c.93,9.32,14.45,94.77,14.45,94.77h10.41l-17.87-103.78Z"/>
      <path class="cls-1" d="M0,50.67h9.94v94.93h26.1l-1.24,8.86H0V50.67Z"/>
      <path class="cls-1" d="M72.87,103.49h-23.3v41.95h26.41l-1.4,9.01h-34.96V50.67h34.65v9.17h-24.7v34.65h23.3v9.01Z"/>
      <path class="cls-1" d="M134.24,154.45V50.67h11.96l18.49,66.19c2.33,8.08,3.42,14.29,4.19,18.33h.31c-.62-14.14-.78-28.74-.78-45.68v-38.84h9.32v103.78h-11.5l-20.66-75.35c-1.4-5.28-2.18-9.32-2.64-12.12h-.16c.62,12.43.93,29.67.93,48.47v39h-9.48Z"/>
      <path class="cls-1" d="M206.48,125.55v5.9c0,10.25,3.57,15.69,11.19,15.69s10.88-5.28,10.88-17.71-2.64-17.4-13.52-25.79c-11.19-8.7-16.62-13.83-16.62-29.05,0-13.05,3.88-25.48,19.58-25.32,14.6.16,18.95,9.63,18.95,23.15v4.66h-9.94v-4.35c0-8.86-1.71-14.76-9.32-14.76s-9.48,6.68-9.48,15.07c0,10.25,2.02,13.83,11.65,21.13,14.14,10.88,18.64,16.78,18.64,33.87,0,14.6-3.88,27.81-20.97,27.81-16.16,0-20.97-10.72-20.97-24.39v-5.9h9.94Z"/>
      <path class="cls-1" d="M253.56,50.67v103.78h-9.94V50.67h9.94Z"/>
      <polygon class="cls-1" points="288.48 103.54 306.07 50.67 295.81 50.67 282.92 94.56 282.76 94.56 270.18 50.67 259.3 50.67 276.3 103.54 288.48 103.54"/>
      <path class="cls-1" d="M327.26,125.55v5.9c0,10.25,3.57,15.69,11.19,15.69s10.88-5.28,10.88-17.71-2.64-17.4-13.52-25.79c-11.19-8.7-16.62-13.83-16.62-29.05,0-13.05,3.88-25.48,19.58-25.32,14.6.16,18.95,9.63,18.95,23.15v4.66h-9.94v-4.35c0-8.86-1.71-14.76-9.32-14.76s-9.48,6.68-9.48,15.07c0,10.25,2.02,13.83,11.65,21.13,14.14,10.88,18.64,16.78,18.64,33.87,0,14.6-3.88,27.81-20.97,27.81-16.16,0-20.97-10.72-20.97-24.39v-5.9h9.94Z"/>
      <path class="cls-1" d="M376.44,50.67v103.78h-9.94V50.67h9.94Z"/>
      <path class="cls-1" d="M426.68,154.45h-7.92c-.31-1.71-.62-6.84-.62-9.32-2.49,7.92-8.39,10.72-15.23,10.72-14.14,0-18.8-10.56-18.8-26.88v-52.67c0-17.09,6.99-27.03,21.6-27.03,17.25,0,20.82,12.12,20.82,25.79v2.49h-9.94v-2.64c0-7.77-.78-16.62-10.88-16.62-7.61,0-11.5,4.82-11.5,17.4v53.6c0,10.57,2.8,17.71,10.72,17.71,10.1,0,11.81-9.48,11.81-23.46v-16.78h-12.12v-8.7h22.06v56.4Z"/>
      <path class="cls-1" d="M486.99,110.02c0-19.27.31-39.46.62-50.34h-.16c-2.64,17.25-11.03,63.7-16.93,94.77h-9.79c-4.35-26.57-13.05-76.44-15.54-94.93h-.31c.31,12.12.78,35.58.78,53.45v41.48h-9.32V50.67h14.76c6.06,31.69,13.36,71.62,14.76,84.67h.16c1.71-12.58,10.1-54.84,16.16-84.67h14.45v103.78h-9.63v-44.43Z"/>
      <path class="cls-2" d="M300.76,151.6l-9.88-38.93c-1.09-3.07-3.99-5.13-7.25-5.13h-1.37c-3.23,0-6.11,2.02-7.22,5.05l-10.28,39.15c-2.01,7.65-8.92,12.98-16.83,12.98H0v7.9h249.44c11.78,0,21.99-8.17,24.58-19.66l7.56-33.61c.3-.89,1.56-.89,1.85,0l7.39,33.5c2.55,11.55,12.78,19.77,24.6,19.77h238.51v-7.9h-236.32c-7.96,0-14.91-5.4-16.87-13.12Z"/>
      <g>
        <path class="cls-1" d="M28.33,27.95c0,1.37-.26,2.65-.79,3.82-.53,1.18-1.25,2.21-2.16,3.09-.92.88-1.99,1.56-3.22,2.06-1.23.49-2.53.74-3.9.74H.75V.21h17.46c1.3,0,2.48.28,3.53.84s1.95,1.29,2.69,2.19c.74.9,1.31,1.92,1.71,3.06.4,1.14.61,2.29.61,3.45,0,1.9-.47,3.64-1.42,5.22-.95,1.58-2.27,2.74-3.96,3.48,2.14.63,3.84,1.82,5.09,3.56,1.25,1.74,1.87,3.72,1.87,5.93ZM3.44,2.64v14.98h13.71c1.02,0,1.95-.21,2.79-.63.84-.42,1.57-.98,2.19-1.66.61-.69,1.1-1.48,1.45-2.4.35-.91.53-1.85.53-2.79,0-1.02-.17-1.98-.5-2.87-.33-.9-.79-1.69-1.37-2.37s-1.27-1.23-2.08-1.63c-.81-.4-1.71-.61-2.69-.61H3.44ZM25.64,27.58c0-.98-.18-1.94-.53-2.87-.35-.93-.84-1.76-1.48-2.48s-1.38-1.29-2.24-1.71c-.86-.42-1.78-.63-2.77-.63H3.44v15.35h14.82c1.05,0,2.03-.21,2.93-.63s1.67-.99,2.32-1.71c.65-.72,1.17-1.54,1.56-2.45.39-.91.58-1.86.58-2.85Z"/>
        <path class="cls-1" d="M63.25,37.66V.21h2.69v35.02h22.36v2.43h-25.05Z"/>
        <path class="cls-1" d="M123.1,37.66L139.03.21h2.21l15.93,37.44h-2.9l-5.22-12.34h-17.88l-5.22,12.34h-2.85ZM140.14,3.48l-8.33,19.62h16.51l-8.17-19.62Z"/>
        <path class="cls-1" d="M187.55,18.67c0-2.25.4-4.49,1.19-6.72.79-2.23,1.94-4.23,3.45-5.99,1.51-1.76,3.37-3.19,5.56-4.3,2.2-1.11,4.7-1.66,7.51-1.66,3.34,0,6.19.77,8.54,2.29s4.1,3.49,5.22,5.88l-2.21,1.27c-.63-1.3-1.4-2.39-2.29-3.27-.9-.88-1.86-1.59-2.9-2.14-1.04-.54-2.12-.94-3.24-1.19-1.13-.25-2.23-.37-3.32-.37-2.39,0-4.5.48-6.33,1.45-1.83.97-3.38,2.22-4.64,3.77-1.27,1.55-2.22,3.3-2.87,5.25-.65,1.95-.98,3.91-.98,5.88,0,2.21.39,4.32,1.16,6.33.77,2,1.83,3.77,3.16,5.3,1.34,1.53,2.92,2.75,4.75,3.67,1.83.91,3.8,1.37,5.91,1.37,1.12,0,2.28-.14,3.45-.42,1.18-.28,2.32-.72,3.43-1.32s2.14-1.36,3.09-2.29c.95-.93,1.74-2.03,2.37-3.3l2.27,1.11c-.63,1.41-1.49,2.66-2.56,3.74-1.07,1.09-2.28,2-3.61,2.74-1.34.74-2.75,1.29-4.25,1.66-1.49.37-2.96.55-4.4.55-2.57,0-4.91-.56-7.04-1.69-2.13-1.12-3.96-2.59-5.51-4.4-1.55-1.81-2.75-3.87-3.61-6.17-.86-2.3-1.29-4.65-1.29-7.04Z"/>
        <path class="cls-1" d="M255.1,37.66V.26h2.69v22.68L279.63.21h3.11l-15.56,16.4,16.35,21.04h-3.06l-15.03-19.41-7.65,7.86v11.55h-2.69Z"/>
        <path class="cls-1" d="M366.17,27.95c0,1.37-.26,2.65-.79,3.82-.53,1.18-1.25,2.21-2.16,3.09-.92.88-1.99,1.56-3.22,2.06-1.23.49-2.53.74-3.9.74h-17.51V.21h17.46c1.3,0,2.48.28,3.53.84s1.95,1.29,2.69,2.19c.74.9,1.31,1.92,1.71,3.06.4,1.14.61,2.29.61,3.45,0,1.9-.47,3.64-1.42,5.22-.95,1.58-2.27,2.74-3.96,3.48,2.14.63,3.84,1.82,5.09,3.56,1.25,1.74,1.87,3.72,1.87,5.93ZM341.28,2.64v14.98h13.71c1.02,0,1.95-.21,2.79-.63.84-.42,1.57-.98,2.19-1.66.61-.69,1.1-1.48,1.45-2.4.35-.91.53-1.85.53-2.79,0-1.02-.17-1.98-.5-2.87-.33-.9-.79-1.69-1.37-2.37s-1.27-1.23-2.08-1.63c-.81-.4-1.71-.61-2.69-.61h-14.03ZM363.48,27.58c0-.98-.18-1.94-.53-2.87-.35-.93-.84-1.76-1.48-2.48s-1.38-1.29-2.24-1.71c-.86-.42-1.78-.63-2.77-.63h-15.19v15.35h14.82c1.05,0,2.03-.21,2.93-.63s1.67-.99,2.32-1.71c.65-.72,1.17-1.54,1.56-2.45.39-.91.58-1.86.58-2.85Z"/>
        <path class="cls-1" d="M427.08,35.23v2.43h-24.94V.21h24.47v2.43h-21.78v14.71h19.04v2.32h-19.04v15.56h22.26Z"/>
        <path class="cls-1" d="M464.1,37.66V.21h2.69v35.02h22.36v2.43h-25.05Z"/>
        <path class="cls-1" d="M543.63,2.64h-13.71v35.02h-2.69V2.64h-13.71V.21h30.11v2.43Z"/>
      </g>
    </g>
  </g>
</svg>